<svg width="1080" height="1080" viewBox="0 0 1080 1080" fill="none" xmlns="http://www.w3.org/2000/svg">
<path d="M899.094 169.255C884.568 169.271 870.641 175.046 860.367 185.315C850.093 195.583 844.31 209.507 844.286 224.033V486.063C844.286 489.28 843.008 492.366 840.732 494.642C838.457 496.917 835.371 498.195 832.153 498.195C828.936 498.195 825.85 496.917 823.574 494.642C821.299 492.366 820.021 489.28 820.021 486.063V95.2472C820.005 78.2144 813.231 61.8837 801.187 49.8396C789.143 37.7956 772.813 31.0222 755.78 31.0061C747.166 30.8868 738.618 32.516 730.652 35.7952C722.686 39.0744 715.467 43.9354 709.434 50.0843C697.778 62.3449 691.359 78.665 691.539 95.5808V486.063C691.539 489.28 690.261 492.366 687.985 494.642C685.71 496.917 682.624 498.195 679.406 498.195C676.189 498.195 673.103 496.917 670.827 494.642C668.552 492.366 667.274 489.28 667.274 486.063V100.343C667.25 81.961 659.937 64.3389 646.939 51.3409C633.941 38.343 616.319 31.0302 597.937 31.0061C554.533 31.0061 528.6 68.4952 528.6 104.711V486.063C528.6 489.28 527.322 492.366 525.047 494.642C522.772 496.917 519.686 498.195 516.468 498.195C513.25 498.195 510.164 496.917 507.889 494.642C505.614 492.366 504.335 489.28 504.335 486.063V173.653C504.319 156.62 497.546 140.289 485.502 128.245C473.458 116.201 457.127 109.428 440.094 109.412C399.875 109.412 375.853 144.141 375.853 177.748V651.792H518.409C546.532 651.785 574.326 657.843 599.895 669.552C625.465 681.261 648.208 698.346 666.576 719.642C668.679 722.076 669.729 725.245 669.496 728.453C669.262 731.661 667.765 734.645 665.333 736.749C662.899 738.851 659.73 739.901 656.522 739.668C653.314 739.435 650.33 737.938 648.226 735.505C632.132 716.847 612.205 701.879 589.803 691.62C567.4 681.361 543.049 676.052 518.409 676.056H363.721C363.182 676.037 362.646 675.987 362.113 675.905H361.476C360.482 675.691 359.515 675.366 358.595 674.934L357.958 674.6C357.161 674.159 356.41 673.641 355.713 673.054L355.41 672.811L295.264 616.304C273.643 595.825 244.881 584.596 215.104 585.009C185.326 585.423 156.887 597.446 135.844 618.518C130.346 623.944 127.177 631.297 127.007 639.02C126.837 646.742 129.68 654.227 134.934 659.89L362.75 907.058C454.138 1008.36 547.011 1049.61 683.319 1049.61C832.517 1049.61 953.902 926.985 953.902 776.209V226.732C954.024 198.858 934.703 169.255 899.094 169.255Z" fill="white"/>
</svg>
