<svg width="491" height="319" viewBox="0 0 491 319" fill="none" xmlns="http://www.w3.org/2000/svg">
<path d="M441.671 219.783V205.567H413.238V219.783H441.671ZM441.671 191.35V177.134H427.455V191.35H441.671ZM399.022 234V191.35H413.238V162.917H441.671C445.596 162.917 448.928 164.324 451.667 167.138C454.481 169.951 455.888 173.283 455.888 177.134V191.35C455.888 193.349 455.185 195.052 453.778 196.459C452.371 197.792 450.705 198.459 448.78 198.459C450.705 198.459 452.371 199.162 453.778 200.569C455.185 201.976 455.888 203.642 455.888 205.567V219.783H470.105C470.105 223.782 468.698 227.151 465.884 229.891C463.07 232.63 459.738 234 455.888 234H399.022Z" fill="#6F6F6F"/>
<path d="M53.0052 181.598V164.202H18.2122V181.598H53.0052ZM0.815704 233.788V146.805H53.0052C57.8074 146.805 61.8847 148.527 65.2372 151.97C68.6802 155.413 70.4017 159.49 70.4017 164.202V181.598C70.4017 186.491 68.6802 190.614 65.2372 193.966C61.7941 197.319 57.7168 198.995 53.0052 198.995H18.2122V233.788H0.815704Z" fill="url(#paint0_linear_2009_20)"/>
<path d="M132.92 181.598V164.202H98.1274V181.598H132.92ZM80.7309 233.788V164.202C80.7309 159.4 82.4071 155.323 85.7596 151.97C89.2026 148.527 93.3253 146.805 98.1274 146.805H132.92C137.723 146.805 141.8 148.527 145.152 151.97C148.595 155.413 150.317 159.49 150.317 164.202V233.788H132.92V198.995H98.1274V233.788H80.7309Z" fill="url(#paint1_linear_2009_20)"/>
<path d="M212.836 181.598V164.202H178.043V181.598H212.836ZM160.646 233.788V146.805H212.836C217.638 146.805 221.715 148.527 225.068 151.97C228.511 155.413 230.232 159.49 230.232 164.202V181.598C230.232 186.491 228.511 190.614 225.068 193.966C221.625 197.319 217.547 198.995 212.836 198.995H178.043V233.788H160.646Z" fill="url(#paint2_linear_2009_20)"/>
<path d="M257.958 233.788C253.065 233.788 248.942 232.112 245.59 228.759C242.238 225.316 240.561 221.194 240.561 216.392V164.202C240.561 159.4 242.238 155.323 245.59 151.97C249.033 148.527 253.156 146.805 257.958 146.805H310.147V164.202H257.958V181.598H310.147V198.995H257.958V216.392H310.147V233.788H257.958Z" fill="url(#paint3_linear_2009_20)"/>
<path d="M372.666 181.598V164.202H337.873V181.598H372.666ZM320.477 233.788V146.805H372.666C377.468 146.805 381.546 148.527 384.898 151.97C388.341 155.413 390.063 159.49 390.063 164.202V181.598C390.063 184.045 389.202 186.129 387.48 187.85C385.759 189.481 383.72 190.297 381.364 190.297C383.72 190.297 385.759 191.158 387.48 192.879C389.202 194.601 390.063 196.639 390.063 198.995V233.788H372.666V198.995H337.873V233.788H320.477Z" fill="url(#paint4_linear_2009_20)"/>
<path d="M-0.00488281 318.793V303.996H44.3876V289.198H14.7926C10.6308 289.198 7.12412 287.773 4.27252 284.921C1.42092 281.992 -0.00488281 278.486 -0.00488281 274.401V259.603C-0.00488281 255.519 1.42092 252.05 4.27252 249.199C7.20119 246.27 10.7079 244.806 14.7926 244.806H59.1851V259.603H14.7926V274.401H44.3876C48.4723 274.401 51.9405 275.865 54.7921 278.794C57.7207 281.723 59.1851 285.191 59.1851 289.198V303.996C59.1851 308.158 57.7207 311.664 54.7921 314.516C51.8634 317.368 48.3952 318.793 44.3876 318.793H-0.00488281Z" fill="url(#paint5_linear_2009_20)"/>
<path d="M82.7686 318.793C78.6068 318.793 75.1001 317.368 72.2485 314.516C69.3969 311.587 67.9711 308.081 67.9711 303.996V259.603C67.9711 255.519 69.3969 252.05 72.2485 249.199C75.1772 246.27 78.6839 244.806 82.7686 244.806H112.364C116.448 244.806 119.916 246.27 122.768 249.199C125.697 252.128 127.161 255.596 127.161 259.603V274.401H112.364V259.603H82.7686V303.996H112.364V289.198H127.161V303.996C127.161 308.158 125.697 311.664 122.768 314.516C119.839 317.368 116.371 318.793 112.364 318.793H82.7686Z" fill="url(#paint6_linear_2009_20)"/>
<path d="M135.947 318.793V244.806H150.745V318.793H135.947Z" fill="url(#paint7_linear_2009_20)"/>
<path d="M159.531 318.793V303.996H203.923V289.198H174.328C170.166 289.198 166.66 287.773 163.808 284.921C160.956 281.992 159.531 278.486 159.531 274.401V259.603C159.531 255.519 160.956 252.05 163.808 249.199C166.737 246.27 170.243 244.806 174.328 244.806H218.721V259.603H174.328V274.401H203.923C208.008 274.401 211.476 275.865 214.328 278.794C217.256 281.723 218.721 285.191 218.721 289.198V303.996C218.721 308.158 217.256 311.664 214.328 314.516C211.399 317.368 207.931 318.793 203.923 318.793H159.531Z" fill="url(#paint8_linear_2009_20)"/>
<path d="M227.507 318.793V303.996H271.899V289.198H242.304C238.142 289.198 234.636 287.773 231.784 284.921C228.932 281.992 227.507 278.486 227.507 274.401V259.603C227.507 255.519 228.932 252.05 231.784 249.199C234.713 246.27 238.219 244.806 242.304 244.806H286.697V259.603H242.304V274.401H271.899C275.984 274.401 279.452 275.865 282.303 278.794C285.232 281.723 286.697 285.191 286.697 289.198V303.996C286.697 308.158 285.232 311.664 282.303 314.516C279.375 317.368 275.907 318.793 271.899 318.793H227.507Z" fill="url(#paint9_linear_2009_20)"/>
<path d="M339.875 303.996V259.603H310.28V303.996H339.875ZM310.28 318.793C306.118 318.793 302.612 317.368 299.76 314.516C296.908 311.587 295.483 308.081 295.483 303.996V259.603C295.483 255.519 296.908 252.05 299.76 249.199C302.689 246.27 306.195 244.806 310.28 244.806H339.875C343.96 244.806 347.428 246.27 350.279 249.199C353.208 252.128 354.672 255.596 354.672 259.603V303.996C354.672 308.158 353.208 311.664 350.279 314.516C347.351 317.368 343.883 318.793 339.875 318.793H310.28Z" fill="url(#paint10_linear_2009_20)"/>
<path d="M407.851 274.401V259.603H378.256V274.401H407.851ZM363.458 318.793V244.806H407.851C411.936 244.806 415.404 246.27 418.255 249.199C421.184 252.128 422.648 255.596 422.648 259.603V274.401C422.648 276.482 421.916 278.254 420.452 279.719C418.988 281.106 417.254 281.8 415.25 281.8C417.254 281.8 418.988 282.532 420.452 283.996C421.916 285.46 422.648 287.195 422.648 289.198V318.793H407.851V289.198H378.256V318.793H363.458Z" fill="url(#paint11_linear_2009_20)"/>
<path d="M431.434 318.793V303.996H475.827V289.198H446.232C442.07 289.198 438.563 287.773 435.712 284.921C432.86 281.992 431.434 278.486 431.434 274.401V259.603C431.434 255.519 432.86 252.05 435.712 249.199C438.641 246.27 442.147 244.806 446.232 244.806H490.624V259.603H446.232V274.401H475.827C479.912 274.401 483.38 275.865 486.231 278.794C489.16 281.723 490.624 285.191 490.624 289.198V303.996C490.624 308.158 489.16 311.664 486.231 314.516C483.303 317.368 479.835 318.793 475.827 318.793H431.434Z" fill="url(#paint12_linear_2009_20)"/>
<path d="M76.8541 51.4298V26.0082H26.0108V51.4298H76.8541ZM0.589142 127.695V0.586548H76.8541C83.8715 0.586548 89.8297 3.10223 94.7287 8.1336C99.76 13.165 102.276 19.1232 102.276 26.0082V51.4298C102.276 55.0048 101.018 58.0501 98.5022 60.5657C95.9865 62.949 93.0074 64.1407 89.5649 64.1407C93.0074 64.1407 95.9865 65.3985 98.5022 67.9142C101.018 70.4299 102.276 73.409 102.276 76.8515V127.695H76.8541V76.8515H26.0108V127.695H0.589142Z" fill="url(#paint13_linear_2009_20)"/>
<path d="M193.635 102.273V26.0082H142.791V102.273H193.635ZM142.791 127.695C135.642 127.695 129.617 125.245 124.718 120.346C119.819 115.315 117.37 109.291 117.37 102.273V26.0082C117.37 18.9908 119.819 13.0326 124.718 8.1336C129.75 3.10223 135.774 0.586548 142.791 0.586548H193.635C200.652 0.586548 206.61 3.10223 211.509 8.1336C216.541 13.165 219.056 19.1232 219.056 26.0082V102.273C219.056 109.423 216.541 115.447 211.509 120.346C206.478 125.245 200.52 127.695 193.635 127.695H142.791Z" fill="url(#paint14_linear_2009_20)"/>
<path d="M259.572 127.695C252.422 127.695 246.398 125.245 241.499 120.346C236.6 115.315 234.15 109.291 234.15 102.273V26.0082C234.15 18.9908 236.6 13.0326 241.499 8.1336C246.53 3.10223 252.555 0.586548 259.572 0.586548H310.415C317.433 0.586548 323.391 3.10223 328.29 8.1336C333.321 13.165 335.837 19.1232 335.837 26.0082V51.4298H310.415V26.0082H259.572V102.273H310.415V76.8515H335.837V102.273C335.837 109.423 333.321 115.447 328.29 120.346C323.259 125.245 317.3 127.695 310.415 127.695H259.572Z" fill="url(#paint15_linear_2009_20)"/>
<path d="M350.931 127.695V0.586548H376.353V51.4298L427.196 0.586548H452.618V13.2974L401.774 64.1407L452.618 114.984V127.695H427.196L376.353 76.8515V127.695H350.931Z" fill="url(#paint16_linear_2009_20)"/>
<path d="M464.855 165.827V114.984H490.277V140.406C490.277 147.423 487.761 153.381 482.729 158.28C477.698 163.312 471.74 165.827 464.855 165.827Z" fill="#6F6F6F"/>
<defs>
<linearGradient id="paint0_linear_2009_20" x1="245.31" y1="0.586548" x2="245.31" y2="318.793" gradientUnits="userSpaceOnUse">
<stop stop-color="#70CF88"/>
<stop offset="1" stop-color="#3AAC57"/>
</linearGradient>
<linearGradient id="paint1_linear_2009_20" x1="245.31" y1="0.586548" x2="245.31" y2="318.793" gradientUnits="userSpaceOnUse">
<stop stop-color="#70CF88"/>
<stop offset="1" stop-color="#3AAC57"/>
</linearGradient>
<linearGradient id="paint2_linear_2009_20" x1="245.31" y1="0.586548" x2="245.31" y2="318.793" gradientUnits="userSpaceOnUse">
<stop stop-color="#70CF88"/>
<stop offset="1" stop-color="#3AAC57"/>
</linearGradient>
<linearGradient id="paint3_linear_2009_20" x1="245.31" y1="0.586548" x2="245.31" y2="318.793" gradientUnits="userSpaceOnUse">
<stop stop-color="#70CF88"/>
<stop offset="1" stop-color="#3AAC57"/>
</linearGradient>
<linearGradient id="paint4_linear_2009_20" x1="245.31" y1="0.586548" x2="245.31" y2="318.793" gradientUnits="userSpaceOnUse">
<stop stop-color="#70CF88"/>
<stop offset="1" stop-color="#3AAC57"/>
</linearGradient>
<linearGradient id="paint5_linear_2009_20" x1="245.31" y1="0.586548" x2="245.31" y2="318.793" gradientUnits="userSpaceOnUse">
<stop stop-color="#DF5B71"/>
<stop offset="1" stop-color="#D52A46"/>
</linearGradient>
<linearGradient id="paint6_linear_2009_20" x1="245.31" y1="0.586548" x2="245.31" y2="318.793" gradientUnits="userSpaceOnUse">
<stop stop-color="#DF5B71"/>
<stop offset="1" stop-color="#D52A46"/>
</linearGradient>
<linearGradient id="paint7_linear_2009_20" x1="245.31" y1="0.586548" x2="245.31" y2="318.793" gradientUnits="userSpaceOnUse">
<stop stop-color="#DF5B71"/>
<stop offset="1" stop-color="#D52A46"/>
</linearGradient>
<linearGradient id="paint8_linear_2009_20" x1="245.31" y1="0.586548" x2="245.31" y2="318.793" gradientUnits="userSpaceOnUse">
<stop stop-color="#DF5B71"/>
<stop offset="1" stop-color="#D52A46"/>
</linearGradient>
<linearGradient id="paint9_linear_2009_20" x1="245.31" y1="0.586548" x2="245.31" y2="318.793" gradientUnits="userSpaceOnUse">
<stop stop-color="#DF5B71"/>
<stop offset="1" stop-color="#D52A46"/>
</linearGradient>
<linearGradient id="paint10_linear_2009_20" x1="245.31" y1="0.586548" x2="245.31" y2="318.793" gradientUnits="userSpaceOnUse">
<stop stop-color="#DF5B71"/>
<stop offset="1" stop-color="#D52A46"/>
</linearGradient>
<linearGradient id="paint11_linear_2009_20" x1="245.31" y1="0.586548" x2="245.31" y2="318.793" gradientUnits="userSpaceOnUse">
<stop stop-color="#DF5B71"/>
<stop offset="1" stop-color="#D52A46"/>
</linearGradient>
<linearGradient id="paint12_linear_2009_20" x1="245.31" y1="0.586548" x2="245.31" y2="318.793" gradientUnits="userSpaceOnUse">
<stop stop-color="#DF5B71"/>
<stop offset="1" stop-color="#D52A46"/>
</linearGradient>
<linearGradient id="paint13_linear_2009_20" x1="245.31" y1="0.586548" x2="245.31" y2="318.793" gradientUnits="userSpaceOnUse">
<stop stop-color="#62B1ED"/>
<stop offset="1" stop-color="#1A8DE5"/>
</linearGradient>
<linearGradient id="paint14_linear_2009_20" x1="245.31" y1="0.586548" x2="245.31" y2="318.793" gradientUnits="userSpaceOnUse">
<stop stop-color="#62B1ED"/>
<stop offset="1" stop-color="#1A8DE5"/>
</linearGradient>
<linearGradient id="paint15_linear_2009_20" x1="245.31" y1="0.586548" x2="245.31" y2="318.793" gradientUnits="userSpaceOnUse">
<stop stop-color="#62B1ED"/>
<stop offset="1" stop-color="#1A8DE5"/>
</linearGradient>
<linearGradient id="paint16_linear_2009_20" x1="245.31" y1="0.586548" x2="245.31" y2="318.793" gradientUnits="userSpaceOnUse">
<stop stop-color="#62B1ED"/>
<stop offset="1" stop-color="#1A8DE5"/>
</linearGradient>
</defs>
</svg>
