<svg width="1080" height="1080" viewBox="0 0 1080 1080" fill="none" xmlns="http://www.w3.org/2000/svg">
<path d="M431.54 591.854H542.431V470.318C542.436 458.134 544.932 446.08 549.766 434.895C554.6 423.711 561.67 413.633 570.541 405.281L612.984 103.299C614.948 86.9512 610.424 70.4855 600.382 57.4367C590.341 44.3879 575.584 35.7963 559.279 33.5064C542.974 31.2165 526.421 35.4109 513.174 45.1891C499.927 54.9673 491.042 69.5498 488.427 85.8057L429.6 489.225C429.223 491.869 427.905 494.287 425.888 496.037C423.872 497.787 421.291 498.75 418.621 498.75C415.951 498.75 413.371 497.787 411.354 496.037C409.337 494.287 408.02 491.869 407.643 489.225L348.677 84.6691C347.53 76.4905 344.784 68.6179 340.595 61.5007C336.405 54.3835 330.855 48.1612 324.261 43.1889C317.667 38.2167 310.158 34.592 302.164 32.5216C294.169 30.4513 285.844 29.976 277.666 31.1228C269.487 32.2696 261.615 35.016 254.497 39.2053C247.38 43.3946 241.158 48.9447 236.186 55.5387C231.213 62.1328 227.589 69.6416 225.518 77.6365C223.448 85.6313 222.973 93.9557 224.12 102.134C240.393 223.559 252.701 310.193 261.711 373.456C284.499 533.665 288.353 560.944 289.018 674.329C303.446 649.283 324.212 628.476 349.23 613.998C374.248 599.521 402.635 591.884 431.54 591.854Z" fill="white"/>
<path d="M789.411 727.169C774.574 727.163 759.97 723.478 746.907 716.444C733.844 709.409 722.73 699.244 714.56 686.86C705.719 710.531 689.863 730.94 669.11 745.356C648.358 759.772 623.698 767.509 598.43 767.533H554.073C574.345 780.374 591.045 798.128 602.624 819.147C614.202 840.166 620.283 863.769 620.303 887.766V926.577C620.303 929.518 619.135 932.339 617.055 934.419C614.975 936.498 612.155 937.666 609.214 937.666C606.273 937.666 603.452 936.498 601.373 934.419C599.293 932.339 598.125 929.518 598.125 926.577V887.766C598.051 855.899 585.345 825.361 562.791 802.849C540.236 780.336 509.675 767.686 477.808 767.671C474.867 767.671 472.047 766.503 469.968 764.423C467.888 762.344 466.719 759.523 466.719 756.582C466.719 753.641 467.888 750.821 469.968 748.741C472.047 746.661 474.867 745.493 477.808 745.493H598.457C622.571 745.504 645.897 736.913 664.243 721.264C673.308 713.54 680.963 704.3 686.865 693.957C695.197 679.341 699.743 662.873 700.089 646.052C700.089 645.304 700.089 644.555 700.089 643.779C700.06 642.234 699.902 640.695 699.617 639.177C699.617 638.817 699.617 638.456 699.617 638.096C698.29 631.363 694.668 625.298 689.371 620.936C684.073 616.573 677.427 614.183 670.564 614.171H431.54C393.79 614.23 357.605 629.253 330.914 655.949C304.224 682.644 289.208 718.833 289.156 756.582C289.156 841.386 321.065 918.011 378.978 972.32C407.447 998.805 441.026 1019.2 477.657 1032.24C514.287 1045.29 553.196 1050.72 591.998 1048.2C740.564 1038.58 856.971 909.583 856.971 754.78V696.563C848.551 706.196 838.164 713.912 826.51 719.192C814.856 724.471 802.205 727.191 789.411 727.169Z" fill="white"/>
<path d="M789.412 473.812C771.493 473.834 754.315 480.961 741.645 493.632C728.974 506.302 721.846 523.481 721.824 541.399V636.543C722.177 638.902 722.363 641.283 722.379 643.668C722.379 644.223 722.379 644.805 722.379 645.359C724.353 662.502 732.814 678.239 746.026 689.339C759.238 700.439 776.198 706.061 793.425 705.05C810.651 704.039 826.837 696.472 838.66 683.902C850.482 671.333 857.045 654.714 857 637.458V541.372C856.978 523.455 849.849 506.28 837.178 493.614C824.506 480.948 807.328 473.826 789.412 473.812Z" fill="white"/>
<path d="M610.24 406.446C609.242 406.778 608.318 407.139 607.468 407.527C606.498 407.915 605.527 408.303 604.696 408.747C603.864 409.19 602.7 409.661 601.729 410.16L599.179 411.519C598.125 412.101 597.1 412.739 596.102 413.404C595.104 414.069 594.66 414.291 593.939 414.79C593.218 415.289 591.805 416.343 590.779 417.174C590.169 417.646 589.559 418.089 588.977 418.588C581.399 424.913 575.302 432.823 571.115 441.762C566.929 450.7 564.755 460.448 564.748 470.318V591.855H670.842C681.208 591.836 691.338 594.958 699.895 600.809V470.318C699.875 453.602 693.666 437.485 682.465 425.076C671.264 412.667 655.865 404.845 639.238 403.119C636.946 402.873 634.641 402.753 632.335 402.758C630.187 402.757 628.04 402.868 625.903 403.091C625.044 403.091 624.185 403.313 623.353 403.424C622.521 403.535 620.858 403.756 619.638 404.006C618.418 404.255 617.614 404.45 616.616 404.671C615.618 404.893 614.565 405.17 613.539 405.475L610.24 406.446Z" fill="white"/>
</svg>
