<svg width="1080" height="1080" viewBox="0 0 1080 1080" fill="none" xmlns="http://www.w3.org/2000/svg">
<path d="M717.039 400.465V247.187C717.039 226.945 708.998 207.532 694.685 193.219C680.372 178.906 660.958 170.865 640.716 170.865C620.474 170.865 601.061 178.906 586.748 193.219C572.435 207.532 564.394 226.945 564.394 247.187V396.245H699.013C705.265 396.257 711.432 397.7 717.039 400.465Z" fill="white"/>
<path d="M363.928 396.245V241.389C363.928 224.474 357.209 208.251 345.248 196.29C333.287 184.329 317.064 177.61 300.149 177.61C283.234 177.61 267.011 184.329 255.05 196.29C243.089 208.251 236.37 224.474 236.37 241.389V432.211C265.131 408.916 301.026 396.218 338.038 396.245H363.928Z" fill="white"/>
<path d="M810.986 555.636C794.51 555.62 778.328 551.27 764.065 543.022C749.802 534.775 737.959 522.92 729.726 508.648C719.121 534.995 700.885 557.572 677.36 573.483C653.834 589.393 626.091 597.912 597.69 597.945H502.279C525.235 611.939 544.208 631.598 557.377 655.037C570.547 678.475 577.47 704.905 577.482 731.79V774.846C577.482 777.891 576.273 780.811 574.119 782.964C571.966 785.117 569.046 786.327 566.001 786.327C562.956 786.327 560.035 785.117 557.882 782.964C555.729 780.811 554.519 777.891 554.519 774.846V731.79C554.474 696.306 540.358 662.289 515.267 637.198C490.176 612.107 456.158 597.991 420.675 597.945H418.637C415.592 597.945 412.671 596.736 410.518 594.582C408.365 592.429 407.155 589.509 407.155 586.464C407.155 583.419 408.365 580.498 410.518 578.345C412.671 576.192 415.592 574.982 418.637 574.982H597.718C629.35 574.952 659.678 562.375 682.047 540.011C704.417 517.646 717.001 487.322 717.039 455.69V437.234C717.039 432.453 715.14 427.868 711.76 424.488C708.379 421.107 703.794 419.208 699.013 419.208H338.037C317.852 419.209 297.911 423.608 279.599 432.1C261.288 440.591 245.047 452.971 232.006 468.377C230.083 470.645 228.188 472.941 226.437 475.323C225.691 476.299 225.002 477.304 224.313 478.194C222.562 480.662 220.869 483.16 219.29 485.743C218.774 486.575 218.286 487.436 217.798 488.298C216.19 491.168 214.669 493.866 213.234 496.708L212.545 498.114C210.937 501.444 209.502 504.831 208.182 508.275C208.01 508.734 207.809 509.165 207.636 509.624C206.345 513.097 205.197 516.657 204.163 520.245C204.163 520.704 203.905 521.163 203.79 521.622C202.786 525.239 201.953 528.884 201.264 532.558L201.006 533.994C200.346 537.696 199.829 541.457 199.485 545.217C199.485 545.647 199.485 546.078 199.485 546.537C199.169 550.441 198.968 554.345 198.968 558.277C198.968 567.749 199.427 577.078 200.174 586.349C214.525 766.751 365.822 909.15 549.841 909.15H591.576C668.561 909.036 742.361 878.405 796.8 823.971C851.239 769.537 881.877 695.74 881.999 618.755V523.058C873.202 533.277 862.305 541.477 850.049 547.1C837.794 552.722 824.47 555.634 810.986 555.636Z" fill="white"/>
<path d="M541.43 248.048C541.43 227.555 533.289 207.901 518.798 193.41C504.307 178.919 484.653 170.778 464.16 170.778C443.666 170.778 424.012 178.919 409.521 193.41C395.031 207.901 386.89 227.555 386.89 248.048V396.159H541.43V248.048Z" fill="white"/>
<path d="M810.987 282.751C792.163 282.774 774.117 290.264 760.809 303.577C747.501 316.89 740.018 334.94 740.003 353.764V461.689C740.377 480.272 748.021 497.968 761.295 510.978C774.569 523.987 792.415 531.274 811.001 531.274C829.588 531.274 847.433 523.987 860.708 510.978C873.982 497.968 881.626 480.272 882 461.689V353.764C881.977 334.937 874.488 316.888 861.175 303.575C847.863 290.263 829.814 282.774 810.987 282.751Z" fill="white"/>
</svg>
